<svg xmlns="http://www.w3.org/2000/svg" viewBox="0 0 60.51 20.76"><defs><style>.cls-1{fill:#95d600;}</style></defs><title>CTA_VoteNow</title><g id="Layer_2" data-name="Layer 2"><g id="Layer_2-2" data-name="Layer 2"><rect class="cls-1" width="60.51" height="20.76"/><path d="M51.7,13.71a.54.54,0,0,1,.17-.4l3-3-3-2.94a.53.53,0,0,1,0-.78l.59-.6a.55.55,0,0,1,.4-.17.53.53,0,0,1,.39.17L57.19,10a.55.55,0,0,1,0,.8l-3.94,3.93a.55.55,0,0,1-.79,0l-.59-.59A.54.54,0,0,1,51.7,13.71Z"/><path d="M10,14.78H8.85L7.06,6H8.39l1,6.15h0l1-6.15h1.34Z"/><path d="M12.45,8.06a2.11,2.11,0,1,1,4.23,0v4.65a2.11,2.11,0,1,1-4.23,0Zm1.26,4.65a.85.85,0,1,0,1.71,0V8.06a.85.85,0,1,0-1.71,0Z"/><path d="M18.48,7.17H17V6H21.2V7.17H19.74v7.62H18.48Z"/><path d="M21.75,6h3.76V7.17H23V9.75h2.18v1.19H23v2.58h2.5v1.26H21.75Z"/><path d="M28.58,6H29.8l1.9,5.3h0V6H33v8.8H31.8L29.87,9.49h0v5.29H28.58Z"/><path d="M34.05,8.06a2.11,2.11,0,1,1,4.23,0v4.65a2.11,2.11,0,1,1-4.23,0Zm1.26,4.65a.85.85,0,1,0,1.71,0V8.06a.85.85,0,1,0-1.71,0Z"/><path d="M44.48,14.78H43.29l-1-5.71h0l-1,5.71H40.16L38.85,6h1.34l.63,5.59h0l1-5.59h1l1,5.72h0L44.45,6h1.34Z"/></g></g></svg>