<svg id="Layer_1" data-name="Layer 1" xmlns="http://www.w3.org/2000/svg" viewBox="0 0 40.69 27.53"><defs><style>.cls-1{fill:#fff;}.cls-2{fill:#94d600;}</style></defs><title>FE_Logo_White</title><path class="cls-1" d="M-455.72,156.51V139.39H-450l0,1.74-3.37.19q0,2.41,0,4.83,1.47-.32,3-0.59l0,1.76q-1.48.34-2.94,0.75,0,2.65-.05,5.29,1.61-.75,3.27-1.35l0,1.74a38.94,38.94,0,0,0-5.4,2.76" transform="translate(455.72 -129.14)"/><path class="cls-1" d="M-445.11,146.82c0.77-2.59,1.54-5.06,2.3-7.44h2.44c-0.06,3.91.06,7.81,0,11.72-0.79.1-1.46,0.23-2.25,0.38,0.14-2.66-.13-5.3,0-7.94-0.62,1.94-1,3.94-1.66,6q-0.9.17-1.78,0.38c-0.53-1.9-1-3.87-1.56-5.92,0,2.92,0,5.83,0,8.72-0.76.25-1.5,0.53-2.25,0.83l0.29-14.19h2.53c0.65,2.6,1.29,5.07,1.95,7.44" transform="translate(455.72 -129.14)"/><path class="cls-1" d="M-439.41,139.39h4.25q2.76,0,2.79,2l0,3.41c0,1.31-.91,1.89-2.79,1.88-0.65,0-1.3,0-2,0,0,1.38,0,2.76,0,4.14-0.79,0-1.54.09-2.33,0.18,0.05-3.87-.05-7.74,0-11.6m2.33,5.9,1.49,0c0.62,0,.92-0.22.92-0.66,0-1.06,0-2.12,0-3.17,0-.44-0.35-0.67-1-0.67h-1.37c0,1.51,0,3,0,4.52" transform="translate(455.72 -129.14)"/><path class="cls-1" d="M-431.7,151c0-3.86,0-7.71,0-11.57h2.33c0.07,4-.07,7.91,0,11.87-0.79-.12-1.54-0.22-2.33-0.3" transform="translate(455.72 -129.14)"/><path class="cls-1" d="M-428.41,139.39H-424q2.62,0,2.67,2.41l0.07,3.47c0,1.23-.41,1.92-1.3,2,0.57,2,1.14,4.07,1.71,6.25q-1.06-.43-2.15-0.79-0.81-3-1.63-5.69l-1.41-.22c0,1.69,0,3.38,0,5.07-0.78-.19-1.55-0.36-2.33-0.51-0.08-4,.08-8,0-12m2.33,6,1.49,0.2a0.69,0.69,0,0,0,.94-0.81c0-1,0-1.91,0-2.87a0.94,0.94,0,0,0-1-1l-1.38-.05c0,1.51,0,3,0,4.53" transform="translate(455.72 -129.14)"/><path class="cls-1" d="M-420.57,153.76c-0.09-4.79.09-9.58,0-14.37H-415v2.07l-3.36-.21c0,1.56,0,3.11,0,4.67,1,0.2,2,.42,3,0.65q0,1,0,2c-1-.3-2-0.58-3-0.84,0,1.71,0,3.41,0,5.12,1.09,0.47,2.31,1,3.36,1.54v2.07a40.55,40.55,0,0,0-5.54-2.76" transform="translate(455.72 -129.14)"/><rect class="cls-2" width="40.69" height="9.54"/><polygon points="4.77 4.3 4.77 5.05 3.68 5.05 3.68 7.86 2.85 7.86 2.85 1.67 4.91 1.67 4.91 2.42 3.68 2.42 3.68 4.3 4.77 4.3"/><path d="M-445.08,130.81h1.62a0.89,0.89,0,0,1,.95,1.06v1.53a1,1,0,0,1-.49,1l0.58,2.58h-0.78l-0.54-2.5h-0.5V137h-0.83v-6.19Zm0.83,3h0.54a0.37,0.37,0,0,0,.37-0.45V132a0.37,0.37,0,0,0-.37-0.45h-0.54v2.23Z" transform="translate(455.72 -129.14)"/><polygon points="19.07 7.86 19.07 1.67 21.12 1.67 21.12 2.42 19.9 2.42 19.9 4.3 20.98 4.3 20.98 5.05 19.9 5.05 19.9 7.11 21.12 7.11 21.12 7.86 19.07 7.86"/><path d="M-427.25,132.48v-0.54a0.32,0.32,0,0,0-.36-0.37h-0.13a0.32,0.32,0,0,0-.35.37v1a0.3,0.3,0,0,0,.07.23l0.22,0.15,0.78,0.42,0.37,0.23a0.58,0.58,0,0,1,.17.2,1.09,1.09,0,0,1,.06.44V136a0.9,0.9,0,0,1-1,1h-0.51a1,1,0,0,1-1-1.14v-0.31h0.83v0.34a0.32,0.32,0,0,0,.37.36h0.15a0.31,0.31,0,0,0,.33-0.36v-1.05a0.3,0.3,0,0,0-.07-0.23l-0.22-.15-0.78-.44a2.51,2.51,0,0,1-.38-0.23,0.53,0.53,0,0,1-.17-0.25,1.23,1.23,0,0,1-.05-0.39v-1.27a0.91,0.91,0,0,1,1-1.06h0.52a0.91,0.91,0,0,1,1,1.06v0.6h-0.83Z" transform="translate(455.72 -129.14)"/><polygon points="37.01 7.86 37.01 5.05 35.99 5.05 35.99 7.86 35.16 7.86 35.16 1.67 35.99 1.67 35.99 4.3 37.01 4.3 37.01 1.67 37.83 1.67 37.83 7.86 37.01 7.86"/><polygon class="cls-2" points="20.45 23.38 21 24.95 22.63 24.97 21.33 25.99 21.8 27.54 20.45 26.63 19.1 27.54 19.56 25.99 18.27 24.97 19.9 24.95 20.45 23.38"/></svg>