<svg xmlns="http://www.w3.org/2000/svg" viewBox="0 0 10.29 10.29"><defs><style>.cls-1{fill:#96d600;}</style></defs><title>Icon_Replay</title><g id="Layer_2" data-name="Layer 2"><g id="Layer_2-2" data-name="Layer 2"><path class="cls-1" d="M5.14,10.29a5.13,5.13,0,0,1-4-1.86.22.22,0,0,1,0-.29l.92-.92a.26.26,0,0,1,.17-.06.22.22,0,0,1,.15.08A3.39,3.39,0,0,0,5.14,8.57,3.43,3.43,0,1,0,2.81,2.63l.92.92A.41.41,0,0,1,3.82,4a.43.43,0,0,1-.4.27h-3A.43.43,0,0,1,0,3.86v-3A.43.43,0,0,1,.27.46.41.41,0,0,1,.73.56l.87.86A5.21,5.21,0,0,1,5.14,0a5.14,5.14,0,0,1,0,10.29Z"/></g></g></svg>