<svg xmlns="http://www.w3.org/2000/svg" viewBox="0 0 182.99 76.85"><defs><style>.cls-1{fill:#fff;}</style></defs><title>Logo_Wave</title><g id="Layer_2" data-name="Layer 2"><g id="Layer_2-2" data-name="Layer 2"><path class="cls-1" d="M101,7.25c3.74-.67,5.72,4.7,5.11,7.57-.81,3.79-3,7.18-4.49,10.68,2-.06,4-1.34,5.78-1.85,2-.59,2.7.05,4.31.2-.15.1-.51.22-.57.26a.68.68,0,0,1,.83.46,1,1,0,0,1-.9,1.12c.4.28.06.61.61.59-.08,1.22-7.42,3.72-8.25,4.12-1.72.83-4.37,1.5-5.56,2.8s-2,3.89-2.83,5.53c-1.8,3.54-3.68,7.13-5.31,10.73C88.3,52.75,86.66,56,85,59.15c-.93,1.77-4,6.26-3.73,7.82-.82,0-2.93,5.73-3.34,6.66C76.83,76,76,78.06,73.42,76c-3.48-2.79.79-9.19,2.43-12.33,4.69-8.93,9.07-18.73,13.74-27.31-3.39,1.31-7.08,2.86-10.25,4.08-3.55,1.37-8.82,2.37-11.51,4.92-1.24,1.18-2.89,3.8-4.57,5.76-1.45,1.69-2.9,3.37-4.39,5-.67.74-2.25,3.14-3.33,3.35s-4-1.86-4.42-2.78c-.82-1.74-.39-1.25,1.09-2.77C54.5,51.6,56.55,49,58.7,46.55c1.21-1.38,5.2-4.5,5.56-6.34.17-.87-1-1.51-.33-2.28.3-.37,2.95-.8,3.63-1.25,2.8-1.85,5.3-5.32,7.72-7.7C82.92,21.5,91.39,12.14,101,7.25ZM79.61,33.37c2.57-.26,5.86-1.85,8.5-2.79A27.35,27.35,0,0,0,92.59,29c2.24-1.45,3.25-5,4.35-7.38.78-1.68,1.95-3.63,2.18-5.51-4.6,2.43-8.77,7.15-12.54,10.68C84.24,28.94,81.93,31.16,79.61,33.37Zm23.66-3.29Z"/><path class="cls-1" d="M144.63,18.3c-.29.51-3.09,4.46-3.18,4,.71.28-1.52,1.8-1.93,2.07a.19.19,0,0,0,.25-.13,2,2,0,0,1-1.36,1.5,4.35,4.35,0,0,0,.53-.81c-.93.61-.75,1.27-1.68,2.44-1.86,2.35-4,4.5-6,6.74-2.4,2.73-4.63,5.45-7,8.22-3.3,3.88-6.31,8-9.63,11.87-.87,1-1.67,2.09-2.6,3.1-1.44,1.55-3.5,5.18-5.64,5.67-2.46.56-4-2.07-5.35-3.68s-2.55-2.78-2.37-5.08a63.8,63.8,0,0,1,2-9.76c.72-3,1.8-6,2.69-8.9,1-3.2,1.62-7.33,3.38-10.05l.08.42c.33,0,2.5-7.5,2.93-8.74.48-1.39,2.64-10.83,4.21-10.88,4.24,1.46,4.82,4.28,3.54,8-1.49,4.32-3.1,8.62-4.48,13C110.63,35,108.11,43,106.4,51c3.93-3.12,6.89-7.95,10.14-11.73,1.3-1.51,4.53-6.14,5.79-6-.29-.45.58-1.34,1.19-2.09,2.68-3.28,5.54-6.37,8.37-9.53a59.55,59.55,0,0,1,6.34-6.62c1.89-1.54,3.35-4.23,6-5.58a4.36,4.36,0,0,1-.38,1c.81-.74,2.05-2.47,2.88-2-.07-.38,1.2-1.14,1.53-1.23,0,.16,0,.56,0,.79,1.57-.61,1.83,2.35.86,2.38.65.62.6,1.24,0,2m-7,9C142.76,20.89,142.07,21.26,142.11,21.45Z"/><path class="cls-1" d="M86.42,1.8a1.17,1.17,0,0,0-1.63-1c0-.25,0-.67,0-.84-.42.12-1.71.87-1.63,1.31-.79-.61-2.3,1.41-3.06,2.1a4,4,0,0,0,.4-1c-2.31,1.2-3.22,3.05-4.61,4.71-.89,1.06-1.95,1.44-3.05,2.4-3.18,2.77-5.89,6.35-8.72,9.46-3.44,3.78-7,7.46-10.31,11.35-.86,1-3.74,4.34-3.3,4.76-1.1-.26-4.91,4.89-6.16,6.39-3.4,4-6.62,9.17-10.79,12.48A239.07,239.07,0,0,1,41.4,26.53c1.21-.08,2.25-2.82,2.83-3.94q-.1.39-.45.31c.72-1.24,5.31-5.72,4.72-6.56a1.57,1.57,0,0,0,0-2.14c1,0,.72-3.22-.83-2.53,0-.25,0-.66,0-.84a1,1,0,0,0-1,.87A10.3,10.3,0,0,0,44.2,7.48c-3.14-2.73-3.88.7-4.7,3.27-1.07,3.39-1.75,7.54-3.55,10.59-2.65,4.46-7,8.27-10.17,12.4-.82,1.07-3.32,4.25-3,4.75-1.18-.14-4.58,5.05-5.79,6.69C14.11,49.1,11.24,54,7.53,57.3,10,44.42,14.16,31.91,17.85,19.36c.51-1.73,1.46-3.65,1-5.36-.34-1.38-1.52-3.33-3-3.82-2.22-.74-2.39,1.34-3,3.34q-1.3,4.68-2.74,9.33c-.23.75-2,7.69-2.29,7.69l-.08-.45C6.44,32.56,6,35.8,5.24,38.57c-.81,3.05-1.65,6.09-2.47,9.14-.54,2-.86,4.19-1.3,6.06C.9,56.23-.63,60.38.28,63.07s5.11,8.16,8.1,6.44c2.74-1.58,5-6.12,6.9-8.55C18,57.48,20.55,53.85,23.2,50.3c1.81-2.43,3.51-5.5,5.6-7.59-.77,2.55-1.24,5.59-1.85,7.89-1.08,4-2.85,7.69.18,11.27,1.21,1.43,3,4.45,4.94,4.83,2.75.53,4.29-2.64,5.78-4.34,2.23-2.56,4.48-4.92,6.62-7.57C49.79,48.19,55,41.56,60.64,35.33,62.11,33.7,74.88,20.82,74,19.68c.22-.27,1.6-1.43,1.47-1.47.45-.34,2.87-1.74,2.05-2.2-.14-.73,2.89-3.4,2.89-3.4s.24-.45,0-.51c.84-1.3,5.91-5.72,5.25-6.58a1.46,1.46,0,0,0,0-2.14C86.42,3.35,86.25,2.56,86.42,1.8ZM42,25.93C42.11,25.41,42.13,25.93,42,25.93Z"/><path class="cls-1" d="M145,23.77c.15-.74.61-1.32,1.25-1.26.47-1.33-1.17-2.33-1.53-3.9-.58-2.56.7-2.71,2.86-3.45a16.65,16.65,0,0,0,4.79-2.55q0-.69.93-.92,1-.72,1.49.32c-.3,0,.26.36.44.35,3.35-.13,7.18-2.62,10.32-3.79,2.38-.89,7-2.54,7.1-2.35s-.61.23-.52.5c1.92-.53,5.71-1.88,5.71-1.88l-.13.61c0,.24.72-.14.72-.14a22.12,22.12,0,0,1,2.7-.81c.21.66.86-.33.59.47.51-.22.37,0,.84-.15-.07.26-.22.35-.38.62a4.48,4.48,0,0,0,.86,0c-.25.27-.15.34-.77.51a1,1,0,0,1,.56.35c-1.6.64-2.91,2.17-4.54,2.21q0,.24.27.11c-.63,1-3.62,1.58-4.54,2,.35-.17-1.58.82-1.83,1s-.31.46-.92,1-5.44,2-8.06,3a51.12,51.12,0,0,0-6.64,2.74,10.21,10.21,0,0,0-3.42,3.47c-1.37,2-3.41,4.07-4.33,6.31,3.73-.42,8.35-3.44,11.87-4.88,2.7-1.11,5.38-2.59,8.25-2.68a1.74,1.74,0,0,1-1.22.77c.78,0,4-1.12,2,.91a.52.52,0,0,1,.47-.14c.13.45-.33.29-.23.74a.39.39,0,0,1,.35-.13c-1.67,2.19-5.14,3.65-7.58,4.8a29.83,29.83,0,0,0-4.23,2.87c-2.12,1.49-5.09,2.37-7.45,3.5-3,1.45-6.24,2.86-9.13,4.57-2.07,1.23-3.42,3.46-5,5.53-1,1.35-5.88,6.22-5.59,7.71,1.87-.33,3-2.24,4.71-2.58l-.18.37c4-1.47,7.73-3.82,11.34-5.3,2.23-.91,5.18-1.44,6.79-2.33a1,1,0,0,0,.81.34,4.14,4.14,0,0,0-.36-.6,7.2,7.2,0,0,0,1.87.06q.24.62-.75.63a1.46,1.46,0,0,0,.84-.15c.12.22.3.75,0,.61a.25.25,0,0,0,.35-.13c.75,1.06-.6,2-1.32,2.84.38-.26-5.13,3.5-5.08,3.93a7.19,7.19,0,0,0-1.11,0c-.2.94-2.93,2.35-3.77,2.31.08.15-1.54,1-1.54,1l-.39-.11s-.8.42-1.71.78c.18.11.16.18.32.36C138,55.88,133.89,58,129.8,60.1c-1.93,1-6.25,4.31-8.45,3.83-1.1-.24-1.69-1.68-2.21-2.63-1.43-2.6-1.65-3.12.35-5.36.9-1,1.77-2,2.62-3.09a3.48,3.48,0,0,1,1-.52c.54-.64.25-1.35,1.13-1.86a1.32,1.32,0,0,0,0,.61c-.06-.32.22-.82.16-1.1l.42.23c-.36-1.94,5.24-7.49,6.64-8.73l-.48.75c.66-.74.86-1.73,1.77-1.76,0,0-.23-.52-.22-.48.45-.1,1.43-1.7,2.15-2.38l-.32.25a4,4,0,0,0,1.23-1.38l-.62.63c.74-2.67,4.26-5.72,6-8q-.07.31.17.24c-.45-1.21,3-5,3.84-5.23-.27-.2-.05-.08-.19-.36"/></g></g></svg>