<svg xmlns="http://www.w3.org/2000/svg" viewBox="0 0 73.95 11.58"><defs><style>.cls-1{fill:#fff;}</style></defs><title>Text_Presents</title><g id="Layer_2" data-name="Layer 2"><g id="Layer_2-2" data-name="Layer 2"><path class="cls-1" d="M0,.1H2.45A2.65,2.65,0,0,1,4.56.9a3.5,3.5,0,0,1,.74,2.67,4.09,4.09,0,0,1-.46,2.29A2.51,2.51,0,0,1,2.46,7H1.63v4.45H0ZM1.63,5.5h.78c1.33,0,1.34-.78,1.34-1.92s0-2-1.28-2H1.63Z"/><path class="cls-1" d="M10,.1h2.62c1.94,0,2.88,1.14,2.88,3.34a2.9,2.9,0,0,1-1.41,2.85l1.76,5.2H14.15L12.63,6.62h-1v4.86H10Zm1.63,5.08h.93c1.14,0,1.31-.64,1.31-1.77S13.7,1.63,12.5,1.63h-.85Z"/><path class="cls-1" d="M20.35.1h4.86V1.63H22V5H24.8V6.51H22V9.85h3.23v1.63H20.35Z"/><path class="cls-1" d="M35.07,3.37H33.44V3c0-.75-.32-1.37-1.15-1.37s-1.1.72-1.1,1.47.08,1.18.93,1.52l1.25.5c1.44.54,1.71,1.46,1.71,3.12,0,1.92-.7,3.34-2.81,3.34a2.69,2.69,0,0,1-2.78-2.7V8.27H31.1v.51a1.07,1.07,0,0,0,1.15,1.17c1.1,0,1.18-.66,1.18-1.7,0-1.21-.14-1.41-.94-1.73L31.32,6a2.69,2.69,0,0,1-1.77-2.93c0-1.73.93-3.12,2.8-3.12a2.67,2.67,0,0,1,2.72,2.57Z"/><path class="cls-1" d="M39.8.1h4.86V1.63H41.43V5h2.81V6.51H41.43V9.85h3.23v1.63H39.8Z"/><path class="cls-1" d="M49.17.1h1.57L53.2,7h0V.1h1.63V11.48H53.33L50.83,4.64h0v6.84H49.17Z"/><path class="cls-1" d="M60.92,1.63H59V.1h5.4V1.63H62.55v9.85H60.92Z"/><path class="cls-1" d="M74,3.37H72.32V3c0-.75-.32-1.37-1.15-1.37s-1.1.72-1.1,1.47.08,1.18.93,1.52l1.25.5C73.68,5.66,74,6.57,74,8.24c0,1.92-.7,3.34-2.81,3.34a2.69,2.69,0,0,1-2.78-2.7V8.27H70v.51a1.08,1.08,0,0,0,1.15,1.17c1.1,0,1.18-.66,1.18-1.7,0-1.21-.14-1.41-.94-1.73L70.21,6a2.69,2.69,0,0,1-1.77-2.93c0-1.73.93-3.12,2.8-3.12A2.67,2.67,0,0,1,74,2.57Z"/></g></g></svg>